<?xml version="1.0" encoding="UTF-8" standalone="no"?>
<!-- Created with Inkscape (http://www.inkscape.org/) -->

<svg
   xmlns:dc="http://purl.org/dc/elements/1.1/"
   xmlns:cc="http://creativecommons.org/ns#"
   xmlns:rdf="http://www.w3.org/1999/02/22-rdf-syntax-ns#"
   xmlns:svg="http://www.w3.org/2000/svg"
   xmlns="http://www.w3.org/2000/svg"
   xmlns:xlink="http://www.w3.org/1999/xlink"
   xmlns:sodipodi="http://sodipodi.sourceforge.net/DTD/sodipodi-0.dtd"
   xmlns:inkscape="http://www.inkscape.org/namespaces/inkscape"
   width="256"
   height="256"
   id="svg2"
   version="1.1"
   inkscape:version="0.48.2 r9819"
   sodipodi:docname="icon.svg"
   inkscape:export-filename="/Users/tmcw/src/heard/assets/heard-tiny.png"
   inkscape:export-xdpi="4.5703125"
   inkscape:export-ydpi="4.5703125">
  <defs
     id="defs4">
    <linearGradient
       id="linearGradient3820">
      <stop
         style="stop-color:#000000;stop-opacity:1;"
         offset="0"
         id="stop3822" />
      <stop
         style="stop-color:#292929;stop-opacity:1;"
         offset="1"
         id="stop3824" />
    </linearGradient>
    <linearGradient
       inkscape:collect="always"
       xlink:href="#linearGradient3820"
       id="linearGradient3826"
       x1="86.115181"
       y1="985.52533"
       x2="199.68962"
       y2="847.49011"
       gradientUnits="userSpaceOnUse"
       gradientTransform="translate(0,-796.36215)" />
  </defs>
  <sodipodi:namedview
     id="base"
     pagecolor="#ffffff"
     bordercolor="#666666"
     borderopacity="1.0"
     inkscape:pageopacity="0.0"
     inkscape:pageshadow="2"
     inkscape:zoom="1"
     inkscape:cx="106.68032"
     inkscape:cy="125.60384"
     inkscape:document-units="px"
     inkscape:current-layer="layer1"
     showgrid="true"
     inkscape:snap-global="true">
    <inkscape:grid
       type="xygrid"
       id="grid2985"
       empspacing="5"
       visible="true"
       enabled="true"
       snapvisiblegridlinesonly="true" />
  </sodipodi:namedview>
  <metadata
     id="metadata7">
    <rdf:RDF>
      <cc:Work
         rdf:about="">
        <dc:format>image/svg+xml</dc:format>
        <dc:type
           rdf:resource="http://purl.org/dc/dcmitype/StillImage" />
        <dc:title></dc:title>
      </cc:Work>
    </rdf:RDF>
  </metadata>
  <g
     inkscape:label="Layer 1"
     inkscape:groupmode="layer"
     id="layer1"
     transform="translate(0,-796.36215)">
    <path
       style="color:#000000;fill:#4b4b4b;fill-opacity:1;fill-rule:nonzero;stroke:none;stroke-width:3;marker:none;visibility:visible;display:inline;overflow:visible;enable-background:accumulate"
       d="M 130 56 C 88.578637 56 55 89.57865 55 131 C 55 172.42135 88.578637 206 130 206 C 171.42135 206 205 172.42135 205 131 C 205 89.57865 171.42135 56 130 56 z M 130 71 C 163.13708 71 190 97.86292 190 131 C 190 164.13708 163.13708 191 130 191 C 96.862915 191 70 164.13708 70 131 C 70 97.86292 96.862915 71 130 71 z M 130 106 C 116.19288 106 105 117.19289 105 131 C 105 144.80712 116.19288 156 130 156 C 143.80711 156 155 144.80712 155 131 C 155 117.19289 143.80711 106 130 106 z M 130 111 C 141.04569 111 150 119.95431 150 131 C 150 142.04569 141.04569 151 130 151 C 118.95431 151 110 142.04569 110 131 C 110 119.95431 118.95431 111 130 111 z "
       transform="translate(0,796.36215)"
       id="path2991-7-5" />
    <path
       style="color:#000000;fill:url(#linearGradient3826);fill-opacity:1;fill-rule:nonzero;stroke:none;stroke-width:3;marker:none;visibility:visible;display:inline;overflow:visible;enable-background:accumulate"
       d="M 130 31 C 74.771516 31 30 75.77152 30 131 C 30 186.22843 74.771516 231 130 231 L 130 164.34375 C 111.59051 164.34375 96.65625 149.40948 96.65625 131 C 96.65625 112.59051 111.59051 97.65625 130 97.65625 C 148.40949 97.65625 163.34375 112.59051 163.34375 131 L 230 131 C 230 75.77152 185.22848 31 130 31 z "
       transform="translate(0,796.36215)"
       id="path2991-7-2" />
  </g>
</svg>
