<?xml version="1.0" encoding="UTF-8" standalone="no"?>
<!-- Created with Inkscape (http://www.inkscape.org/) -->

<svg
   xmlns:dc="http://purl.org/dc/elements/1.1/"
   xmlns:cc="http://creativecommons.org/ns#"
   xmlns:rdf="http://www.w3.org/1999/02/22-rdf-syntax-ns#"
   xmlns:svg="http://www.w3.org/2000/svg"
   xmlns="http://www.w3.org/2000/svg"
   xmlns:xlink="http://www.w3.org/1999/xlink"
   xmlns:sodipodi="http://sodipodi.sourceforge.net/DTD/sodipodi-0.dtd"
   xmlns:inkscape="http://www.inkscape.org/namespaces/inkscape"
   width="256"
   height="256"
   id="svg2"
   version="1.1"
   inkscape:version="0.48.2 r9819"
   sodipodi:docname="icon2.svg"
   inkscape:export-filename="/Users/tmcw/src/tmcw.github.com/graphics/heard-giant.png"
   inkscape:export-xdpi="450"
   inkscape:export-ydpi="450">
  <defs
     id="defs4">
    <linearGradient
       id="linearGradient3820">
      <stop
         style="stop-color:#000000;stop-opacity:1;"
         offset="0"
         id="stop3822" />
      <stop
         style="stop-color:#292929;stop-opacity:1;"
         offset="1"
         id="stop3824" />
    </linearGradient>
    <linearGradient
       inkscape:collect="always"
       xlink:href="#linearGradient3820"
       id="linearGradient3826"
       x1="86.115181"
       y1="985.52533"
       x2="199.68962"
       y2="847.49011"
       gradientUnits="userSpaceOnUse"
       gradientTransform="translate(0,-796.36215)" />
  </defs>
  <sodipodi:namedview
     id="base"
     pagecolor="#ffffff"
     bordercolor="#666666"
     borderopacity="1.0"
     inkscape:pageopacity="0.0"
     inkscape:pageshadow="2"
     inkscape:zoom="1.69344"
     inkscape:cx="186.35744"
     inkscape:cy="163.21458"
     inkscape:document-units="px"
     inkscape:current-layer="layer1"
     showgrid="true"
     inkscape:snap-global="true"
     showguides="true"
     inkscape:guide-bbox="true">
    <inkscape:grid
       type="xygrid"
       id="grid2985"
       empspacing="5"
       visible="true"
       enabled="true"
       snapvisiblegridlinesonly="true" />
    <sodipodi:guide
       orientation="1,0"
       position="-297.6,304.64"
       id="guide3039" />
  </sodipodi:namedview>
  <metadata
     id="metadata7">
    <rdf:RDF>
      <cc:Work
         rdf:about="">
        <dc:format>image/svg+xml</dc:format>
        <dc:type
           rdf:resource="http://purl.org/dc/dcmitype/StillImage" />
        <dc:title></dc:title>
      </cc:Work>
    </rdf:RDF>
  </metadata>
  <g
     inkscape:label="Layer 1"
     inkscape:groupmode="layer"
     id="layer1"
     transform="translate(0,-796.36215)">
    <path
       style="color:#000000;fill:#4b4b4b;fill-opacity:1;fill-rule:nonzero;stroke:none;stroke-width:3;marker:none;visibility:visible;display:inline;overflow:visible;enable-background:accumulate"
       d="m 120.125,762.36215 0,45.0625 c -64.422177,2.11031 -116,55.00213 -116,119.9375 0,66.2743 53.725824,120.00005 120,120.00005 64.60078,0 117.28724,-51.04242 119.90625,-115.00005 l 36.09375,0 -160,0 z m 0,69.09375 0,17.75 c -41.365347,2.08045 -74.25,36.27416 -74.25,78.15625 0,43.2222 35.027708,78.25005 78.25,78.25005 41.54441,0 75.5179,-32.3553 78.09375,-73.25005 l 17.78125,0 c -2.60253,50.69403 -44.53369,91.00005 -95.875,91.00005 -53.019345,0 -96,-42.98075 -96,-96.00005 0,-51.67701 40.838993,-93.8056 92,-95.90625 z m 0,33.4375 0,22.6875 c -20.21465,2.0056 -36,19.03893 -36,39.78125 0,22.0914 17.9086,40 40,40 20.39735,0 37.19482,-15.26944 39.65625,-35 l 22.75,0 c -2.54887,32.23877 -29.51243,57.59375 -62.40625,57.59375 -34.57783,0 -62.59375,-28.01585 -62.59375,-62.59375 0,-33.23239 25.882278,-60.40351 58.59375,-62.46875 z m 0,30.71875 0,5.96875 c -12.50689,1.92624 -22.09375,12.73508 -22.09375,25.78125 0,14.4075 11.68631,26.09375 26.09375,26.09375 12.69368,0 23.25731,-9.08338 25.59375,-21.09375 l 6,0 c -2.4012,15.29736 -15.62223,27 -31.59375,27 -17.67309,0 -32,-14.3267 -32,-32 0,-16.31964 12.21304,-29.7832 28,-31.75 z m 0,11.28125 0,25.46875 24.28125,0 c -2.23788,9.11472 -10.47636,15.875 -20.28125,15.875 -11.52593,0 -20.875,-9.349 -20.875,-20.875 0,-10.16109 7.2581,-18.60644 16.875,-20.46875 z"
       id="path2991-7-5"
       inkscape:connector-curvature="0"
       sodipodi:nodetypes="ccssccccccssccsscccssccsscccssccssccccssc" />
    <text
       xml:space="preserve"
       style="font-size:152.41400146px;font-style:normal;font-variant:normal;font-weight:normal;font-stretch:normal;text-indent:0;text-align:start;text-decoration:none;line-height:100%;letter-spacing:normal;word-spacing:normal;text-transform:none;direction:ltr;block-progression:tb;writing-mode:lr-tb;text-anchor:start;color:#000000;fill:#4a4a4a;fill-opacity:1;fill-rule:nonzero;stroke:none;stroke-width:0.5;marker:none;visibility:visible;display:inline;overflow:visible;enable-background:accumulate;font-family:Georgia;-inkscape-font-specification:Georgia"
       x="118.88232"
       y="922.36212"
       id="text3041"
       sodipodi:linespacing="100%"><tspan
         sodipodi:role="line"
         id="tspan3043"
         x="118.88232"
         y="922.36212"
         style="font-style:normal;font-variant:normal;font-weight:500;font-stretch:normal;font-family:'M+ 1c';-inkscape-font-specification:'M+ 1c Medium'" /></text>
  </g>
</svg>
